<?xml version="1.0" standalone="no"?>
<!DOCTYPE svg PUBLIC "-//W3C//DTD SVG 20010904//EN"
 "http://www.w3.org/TR/2001/REC-SVG-20010904/DTD/svg10.dtd">
<svg version="1.0" xmlns="http://www.w3.org/2000/svg"
 width="6021.000000pt" height="6046.000000pt" viewBox="0 0 6021.000000 6046.000000"
 preserveAspectRatio="xMidYMid meet">

<g transform="translate(0.000000,6046.000000) scale(0.100000,-0.100000)"
fill="#000000" stroke="none">
<path d="M29670 60443 c0 -14 -2 -15 -9 -4 -5 7 -13 12 -18 10 -6 -2 -6653
-3770 -14771 -8374 -12220 -6929 -14761 -8373 -14756 -8387 4 -13 0 -18 -15
-18 l-21 0 0 -657 c0 -362 -18 -6155 -39 -12873 -21 -6718 -39 -12222 -39
-12230 0 -9 1469 -996 3539 -2380 1947 -1301 3562 -2382 3589 -2402 l50 -38
93 46 c101 51 7363 3795 7572 3904 l130 68 3680 -2283 3680 -2283 3 -559 c1
-307 10 -2143 20 -4081 14 -2969 19 -3524 31 -3531 7 -5 11 -13 8 -17 -2 -5
1631 -981 3630 -2169 2000 -1188 3638 -2166 3640 -2172 7 -19 753 -19 753 0 1
13 29740 17610 29771 17615 16 3 19 13 19 53 0 113 -330 25380 -332 25454 l-3
80 -32 5 -32 5 64 110 c48 83 60 113 52 121 -7 6 -6644 3833 -14750 8504
-11583 6675 -14741 8490 -14748 8479 -7 -11 -9 -11 -9 4 0 16 -25 17 -375 17
-350 0 -375 -1 -375 -17z m-4 -59540 c-2 -2 -1472 869 -3267 1936 l-3264 1940
-7 148 c-3 81 -14 1937 -23 4123 -9 2186 -18 3981 -20 3988 -3 8 -31 12 -95
12 -60 0 -89 4 -88 11 2 6 -3430 2141 -7626 4743 l-7629 4733 -319 -142 c-175
-78 -320 -144 -323 -147 -3 -2 13 -1829 35 -4059 23 -2230 39 -4068 38 -4085
l-3 -32 -3160 2113 -3160 2113 3 893 c2 492 18 5795 38 11784 19 5990 35
11202 37 11583 l2 694 14415 8173 14415 8173 3 -29346 c1 -16140 0 -29347 -2
-29349z m14922 50529 c7786 -4487 14165 -8163 14175 -8169 15 -8 -497 -329
-2977 -1866 -1647 -1021 -2998 -1857 -3003 -1857 -4 0 -5037 2992 -11183 6649
l-11175 6648 -3 3376 c-1 1858 0 3377 3 3377 3 0 6376 -3671 14163 -8158z
m-3256 -5958 c5997 -3568 10907 -6490 10911 -6494 8 -7 91 -16130 83 -16137
-2 -2 -4931 2855 -10952 6350 l-10949 6355 -3 8206 c-1 4513 0 8206 2 8206 3
0 4911 -2919 10908 -6486z m17802 -3006 c11 -235 319 -24389 310 -24398 -9 -9
-29015 -17170 -29021 -17170 -1 0 -3 3566 -3 7924 l0 7923 3510 2103 c1931
1156 3512 2101 3514 2099 1 -2 -32 -1826 -75 -4054 -42 -2227 -76 -4051 -75
-4053 2 -1 168 -5 369 -9 365 -6 366 -6 384 15 10 12 3397 2064 7528 4562
l7510 4540 -4 893 c-2 490 -20 4276 -40 8412 -30 5951 -35 7523 -25 7534 12
13 6093 3788 6106 3790 3 1 9 -50 12 -111z m-17919 -14052 c5918 -3435 10759
-6248 10759 -6252 -2 -9 -13904 -8417 -13909 -8412 -2 2 30 1767 71 3923 64
3380 76 3924 89 3947 8 14 15 28 15 30 0 2 -1759 1104 -3910 2448 l-3909 2445
-1 4068 c0 3871 1 4067 18 4058 9 -5 4859 -2820 10777 -6255z m-7500 -4816
c1788 -1118 3254 -2036 3258 -2040 6 -6 -6531 -3930 -6548 -3930 -3 0 -5 1807
-5 4016 l0 4016 23 -14 c12 -9 1485 -930 3272 -2048z m-22687 -4045 c1756
-1089 3192 -1983 3192 -1986 0 -3 -1437 -747 -3192 -1652 l-3193 -1646 -3 47
c-2 37 -72 7055 -72 7220 l0 43 38 -23 c21 -13 1475 -914 3230 -2003z"/>
<path d="M22290 48118 c0 -7 -3379 -1941 -7509 -4298 -6610 -3772 -7508 -4287
-7500 -4302 8 -15 6 -18 -12 -18 l-22 0 7 -962 c4 -530 13 -2536 22 -4458 8
-1922 16 -3533 17 -3580 l2 -85 50 -5 c44 -5 868 -488 7410 -4339 4048 -2383
7365 -4339 7371 -4347 9 -12 77 -14 383 -14 l371 0 0 173 c0 94 36 5865 80
12822 44 6958 80 12824 80 13038 l0 387 -375 0 c-293 0 -375 -3 -375 -12z
m-28 -4858 c-18 -2906 -27 -3978 -36 -3986 -16 -16 -14177 -8106 -14182 -8102
-1 2 -11 1783 -21 3958 -12 2674 -15 3957 -8 3962 17 11 14270 8146 14271
8144 0 0 -10 -1790 -24 -3976z m-32 -4992 c-1 -459 -100 -15661 -102 -15663
-3 -3 -13548 7971 -13560 7983 -7 7 13634 7811 13655 7812 4 0 7 -60 7 -132z"/>
</g>
</svg>
